<?xml version="1.0" encoding="utf-8"?>
<!-- Generator: Adobe Illustrator 26.5.0, SVG Export Plug-In . SVG Version: 6.00 Build 0)  -->
<svg version="1.1" xmlns="http://www.w3.org/2000/svg" xmlns:xlink="http://www.w3.org/1999/xlink" x="0px" y="0px"
	 viewBox="0 0 60 60" style="enable-background:new 0 0 60 60;" xml:space="preserve">
<style type="text/css">
	.st0{fill:none;}
	.st1{fill:none;stroke:#EF6100;stroke-width:3;stroke-linecap:round;stroke-linejoin:round;stroke-miterlimit:10;}
	.st2{display:none;}
	.st3{display:inline;}
	.st4{fill:none;stroke:#00ABEC;stroke-width:0.1;stroke-miterlimit:10;}
	.st5{display:inline;fill:none;stroke:#00ABEC;stroke-width:0.1;stroke-miterlimit:10;}
	.st6{display:inline;fill:none;}
</style>
<g id="Layer_1">
	<rect x="-0.1" y="0" class="st0" width="60" height="60"/>
	<rect x="0" y="0" class="st0" width="60" height="60"/>
	<g>
		<path class="st1" d="M28,15.3L7.5,24c-1.5,0.7-1.5,2.7,0,3.3L28,35.8c1.2,0.5,2.5,0.5,3.7,0l20.5-8.5c1.5-0.7,1.5-2.7,0-3.3
			l-20.5-8.7C30.5,14.8,29.2,14.8,28,15.3z"/>
		<path class="st1" d="M52,34v-6"/>
		<path class="st1" d="M55,36.7c0-1.6-1.2-2.7-3-2.7s-3,1.1-3,2.7V39h6V36.7z"/>
		<path class="st1" d="M45,30.3V39c0,0.5-0.2,1-0.8,1.3c-4.8,3.2-9.5,4.8-14.3,4.7H30c-4.8,0-9.6-1.6-14.3-4.7
			C15,40,14.9,39.5,14.9,39v-8.7"/>
	</g>
</g>
<g id="Layer_2" class="st2">
	<g class="st3">
		<rect x="0" y="0" class="st4" width="60" height="60"/>
		<rect x="0" y="0" class="st4" width="60" height="60"/>
		<line class="st4" x1="60" y1="0" x2="0" y2="59.9"/>
		<line class="st4" x1="0" y1="0" x2="60" y2="59.9"/>
		<rect x="8.8" y="8.8" class="st4" width="42.4" height="42.4"/>
		<rect x="15" y="15" class="st4" width="30" height="30"/>
		<circle class="st4" cx="30" cy="29.9" r="15"/>
		<circle class="st4" cx="30" cy="30" r="21.2"/>
		<circle class="st4" cx="30" cy="29.9" r="30"/>
	</g>
	<line class="st5" x1="30" y1="0" x2="30" y2="59.9"/>
	<line class="st5" x1="60" y1="29.9" x2="0" y2="29.9"/>
</g>
</svg>
