<?xml version="1.0" encoding="UTF-8" standalone="no"?>
<!DOCTYPE svg PUBLIC "-//W3C//DTD SVG 1.1//EN" "http://www.w3.org/Graphics/SVG/1.1/DTD/svg11.dtd">
<svg width="100%" height="100%" viewBox="0 0 400 400" version="1.1" xmlns="http://www.w3.org/2000/svg" xmlns:xlink="http://www.w3.org/1999/xlink" xml:space="preserve" xmlns:serif="http://www.serif.com/" style="fill-rule:evenodd;clip-rule:evenodd;stroke-linecap:round;stroke-linejoin:round;stroke-miterlimit:2;">
    <g transform="matrix(7.22592,0,0,6.59618,-872.523,-464.31)">
        <g transform="matrix(1.51612,-0.149447,0.124534,1.51612,-82.3617,-27.4041)">
            <path d="M134.649,98.224C134.383,98.466 134.17,98.679 134.01,98.863C133.85,99.046 133.731,99.214 133.653,99.367C133.574,99.519 133.514,99.671 133.471,99.824C133.428,99.976 133.363,100.244 133.278,100.627C133.129,101.439 132.664,101.845 131.883,101.845C131.477,101.845 131.135,101.712 130.858,101.447C130.58,101.181 130.442,100.787 130.442,100.263C130.442,99.607 130.543,99.039 130.746,98.558C130.949,98.078 131.219,97.656 131.555,97.293C131.891,96.929 132.344,96.498 132.914,95.998C133.414,95.56 133.776,95.23 133.998,95.007C134.221,94.785 134.408,94.537 134.561,94.263C134.713,93.99 134.789,93.693 134.789,93.373C134.789,92.748 134.557,92.22 134.092,91.791C133.627,91.361 133.028,91.146 132.293,91.146C131.434,91.146 130.801,91.363 130.395,91.796C129.988,92.23 129.645,92.869 129.363,93.712C129.098,94.595 128.594,95.037 127.852,95.037C127.414,95.037 127.045,94.882 126.744,94.574C126.444,94.265 126.293,93.931 126.293,93.572C126.293,92.83 126.531,92.078 127.008,91.316C127.485,90.554 128.18,89.923 129.094,89.423C130.008,88.923 131.074,88.673 132.293,88.673C133.426,88.673 134.426,88.882 135.293,89.3C136.16,89.718 136.83,90.287 137.303,91.005C137.776,91.724 138.012,92.505 138.012,93.349C138.012,94.013 137.877,94.595 137.608,95.095C137.338,95.595 137.018,96.027 136.647,96.39M132.012,106.416C131.535,106.416 131.119,106.261 130.764,105.953C130.408,105.644 130.231,105.212 130.231,104.658C130.231,104.166 130.403,103.752 130.746,103.416C131.09,103.08 131.512,102.912 132.012,102.912C132.504,102.912 132.918,103.08 133.254,103.416C133.59,103.752 133.758,104.166 133.758,104.658C133.758,105.205 133.582,105.634 133.231,105.947C132.879,106.259 132.473,106.416 132.012,106.416Z" style="fill:rgb(255,138,0);fill-rule:nonzero;stroke:black;stroke-width:0.57px;"/>
        </g>
        <g transform="matrix(1.52225,0,0,1.52225,-76.6963,-47.6444)">
            <path d="M149.811,98.341L155.473,98.341L155.473,102.537L160.535,97.474L155.473,92.412L155.473,96.607L141.738,96.607L141.738,98.341L146.213,98.341" style="fill:rgb(0,18,255);fill-rule:nonzero;stroke:rgb(3,0,0);stroke-width:0.57px;"/>
        </g>
        <g transform="matrix(1.5028,0.265715,-0.22142,1.5028,-57.4067,-90.2354)">
            <path d="M168.308,97.218L168.176,98.728C168.121,99.416 168.004,99.943 167.824,100.31C167.645,100.677 167.348,100.861 166.934,100.861C166.512,100.861 166.219,100.683 166.055,100.328C165.891,99.972 165.774,99.431 165.703,98.705L165.328,93.091C165.258,91.998 165.223,91.212 165.223,90.736C165.223,90.087 165.393,89.582 165.733,89.218C166.072,88.855 166.52,88.673 167.074,88.673C167.746,88.673 168.196,88.906 168.422,89.371C168.649,89.836 168.762,90.505 168.762,91.38C168.762,91.896 168.735,92.42 168.68,92.951L168.553,94.411M167.004,106.416C166.528,106.416 166.112,106.261 165.756,105.953C165.401,105.644 165.223,105.212 165.223,104.658C165.223,104.173 165.393,103.761 165.733,103.421C166.072,103.082 166.488,102.912 166.981,102.912C167.473,102.912 167.893,103.082 168.24,103.421C168.588,103.761 168.762,104.173 168.762,104.658C168.762,105.205 168.586,105.634 168.235,105.947C167.883,106.259 167.473,106.416 167.004,106.416Z" style="fill:rgb(125,236,198);fill-rule:nonzero;stroke:rgb(2,0,0);stroke-width:0.57px;"/>
        </g>
    </g>
</svg>
